<svg xmlns="http://www.w3.org/2000/svg" xmlns:xlink="http://www.w3.org/1999/xlink" version="1.1" width="1000" height="1000" viewBox="0 0 1000 1000" xml:space="preserve">
<desc>Created with Fabric.js 3.5.0</desc>
<defs>
</defs>
<rect x="0" y="0" width="100%" height="100%" fill="#ffffff"/>
<g transform="matrix(0 2.139 -2.139 0 500.008 499.9952)" id="824924">
<g style="" vector-effect="non-scaling-stroke">
		<g transform="matrix(1 0 0 1 -0.4265 164.5181)">
<linearGradient id="SVGID_6" gradientUnits="objectBoundingBox" gradientTransform="matrix(1 0 0 1 127.5735 377.0181)" x1="0.5" y1="-3.5292578600000004" x2="0.5" y2="0.967175267">
<stop offset="0%" style="stop-color:rgb(0,46,59);stop-opacity: 1"/>
<stop offset="100%" style="stop-color:rgb(0,38,57);stop-opacity: 1"/>
</linearGradient>
<path style="stroke: none; stroke-width: 1; stroke-dasharray: none; stroke-linecap: butt; stroke-dashoffset: 0; stroke-linejoin: miter; stroke-miterlimit: 4; is-custom-font: none; font-file-url: none; fill: url(#SVGID_6); fill-rule: nonzero; opacity: 1;" transform=" translate(-127.5735, -377.0181)" d="M 65.6992339 330.300644 L 0.107733463 362.384436 L 127.400289 424.384842 L 255.039336 362.18981 L 189.28052 329.651265 L 127.352045 360.40471 L 65.6992339 330.300644 Z" stroke-linecap="round"/>
</g>
		<g transform="matrix(1 0 0 1 -0.4981 -163.4005)">
<linearGradient id="SVGID_7" gradientUnits="objectBoundingBox" gradientTransform="matrix(1 0 0 1 127.5019 49.0995)" x1="0.5" y1="-0.028078618700000002" x2="0.5" y2="4.28758892">
<stop offset="0%" style="stop-color:rgb(0,46,59);stop-opacity: 1"/>
<stop offset="100%" style="stop-color:rgb(0,38,57);stop-opacity: 1"/>
</linearGradient>
<path style="stroke: none; stroke-width: 1; stroke-dasharray: none; stroke-linecap: butt; stroke-dashoffset: 0; stroke-linejoin: miter; stroke-miterlimit: 4; is-custom-font: none; font-file-url: none; fill: url(#SVGID_7); fill-rule: nonzero; opacity: 1;" transform=" translate(-127.5019, -49.0995)" d="M 57.6019991 98.1748765 L 57.6019991 98.1541795 L 127.531267 64.0476413 L 197.46571 98.1541795 L 255.003891 62.1986373 L 127.484698 0 L 0 62.1796642 L 0 62.2348584 L 57.5537042 98.1990237 L 57.6019991 98.1748765 L 57.6019991 98.1748765 Z" stroke-linecap="round"/>
</g>
		<g transform="matrix(1 0 0 1 -64.0295 102.5433)">
<radialGradient id="SVGID_8" gradientUnits="objectBoundingBox" gradientTransform="matrix(1 0 0 1 63.9705 315.0433)" cx="0.164234038" cy="1.42999709" r="2.9557111" fx="0.164234038" fy="1.42999709">
<stop offset="0%" style="stop-color:rgb(0,188,133);stop-opacity: 1"/>
<stop offset="100%" style="stop-color:rgb(20,157,145);stop-opacity: 1"/>
</radialGradient>
<path style="stroke: none; stroke-width: 1; stroke-dasharray: none; stroke-linecap: butt; stroke-dashoffset: 0; stroke-linejoin: miter; stroke-miterlimit: 4; is-custom-font: none; font-file-url: none; fill: url(#SVGID_8); fill-rule: nonzero; opacity: 1;" transform=" translate(-63.9705, -315.0433)" d="M 0.15618046 298.428426 L 63.071162 267.624645 L 127.784793 299.667263 L 0.15618046 362.461971 L 0.15618046 298.428426 Z" stroke-linecap="round"/>
</g>
		<g transform="matrix(1 0 0 1 62.1686 -47.9343)">
<radialGradient id="SVGID_9" gradientUnits="objectBoundingBox" gradientTransform="matrix(1 0 0 1 190.1686 164.5657)" cx="0.16423338" cy="-0.42999755" r="3.57003966" fx="0.16423338" fy="-0.42999755">
<stop offset="0%" style="stop-color:rgb(0,188,133);stop-opacity: 1"/>
<stop offset="100%" style="stop-color:rgb(20,157,145);stop-opacity: 1"/>
</radialGradient>
<path style="stroke: none; stroke-width: 1; stroke-dasharray: none; stroke-linecap: butt; stroke-dashoffset: 0; stroke-linejoin: miter; stroke-miterlimit: 4; is-custom-font: none; font-file-url: none; fill: url(#SVGID_9); fill-rule: nonzero; opacity: 1;" transform=" translate(-190.1686, -164.5657)" d="M 196.677541 99.4103235 C 196.67754 132.999495 196.677539 200.177839 196.677539 200.177839 L 126.336262 234.601641 L 191.022434 266.940614 L 254.000917 236.143726 L 254.00091 62.1907831 L 196.677541 98.1665853 L 196.677541 99.4103235 Z" stroke-linecap="round"/>
</g>
		<g transform="matrix(1 0 0 1 -0.4981 -0.2582)">
<radialGradient id="SVGID_10" gradientUnits="objectBoundingBox" gradientTransform="matrix(1 0 0 1 127.5019 212.2419)" cx="0.11467032700000002" cy="-0.40458049500000004" r="3.43189366" fx="0.11467032700000002" fy="-0.40458049500000004">
<stop offset="0%" style="stop-color:rgb(0,68,115);stop-opacity: 1"/>
<stop offset="100%" style="stop-color:rgb(0,52,95);stop-opacity: 1"/>
</radialGradient>
<path style="stroke: none; stroke-width: 1; stroke-dasharray: none; stroke-linecap: butt; stroke-dashoffset: 0; stroke-linejoin: miter; stroke-miterlimit: 4; is-custom-font: none; font-file-url: none; fill: url(#SVGID_10); fill-rule: nonzero; opacity: 1;" transform=" translate(-127.5019, -212.2419)" d="M 255.003891 298.216498 L 57.5889764 199.96591 L 57.5889774 98.1815418 L 1.42108547e-14 62.2302408 L 1.42108547e-14 63.1375243 L 1.42108547e-14 235.931797 L 255.003891 362.253488 L 255.003891 298.216498 Z" stroke-linecap="round"/>
</g>
</g>
</g>
</svg>